<?xml version="1.0" encoding="utf-8"?>
<!-- Generator: Adobe Illustrator 22.0.1, SVG Export Plug-In . SVG Version: 6.00 Build 0)  -->
<svg version="1.1" id="Layer_1" xmlns="http://www.w3.org/2000/svg" xmlns:xlink="http://www.w3.org/1999/xlink" x="0px" y="0px"
	 viewBox="0 0 798 303" style="enable-background:new 0 0 798 303;" xml:space="preserve">
<style type="text/css">
	.st0{fill:#4FA1D1;}
	.st1{fill:#37454C;}
</style>
<g transform="matrix(.3 0 0 -.3 0 602.22)">
	<g>
		<path class="st0" d="M0,1134l28.2,26.7l53.3,51.8l32.9,34.6l11,14.1l3.1,37.7l-7.8,69.1l-12.5,28.3l-7.8,25.1v14.1l25.1,17.3
			l54.8,23.6l64.2,12.6l62.7,4.7l17.2-3.1l12.5-11h15.7l58,20.4l26.6,9.4l15.7-9.4l11,4.7l-1.6,9.4l17.2,25.1l11,22l9.4,1.6
			l15.7-4.7l11,7.9l11,18.8l-4.7,70.7l-11,22l-6.3,6.3l-14.1,9.4l21.9,12.6h11v15.7l-11,6.3l-3.1,3.1l-3.1,4.7l-11-3.1h-4.7
			l-3.1,18.8l21.9,29.8l7.8,26.7l20.4,23.6l15.7,22l7.8,25.1l26.6,28.3l37.6,31.4l43.9,15.7l58,18.8l34.5,4.7l20.4,9.4l26.6,12.6
			l39.2,7.9l7.8-23.6l-4.7-1.6H854l-3.1-9.4v-17.3l4.7-28.3l7.8-22v-6.3l3.1,1.6l4.7,6.3l3.1,3.1l3.1-3.1v-9.4l6.3-22l6.3-7.9v-6.3
			l-3.1-4.7l-9.4-6.3H876v-7.9l1.6-12.6l6.3-9.4l3.1-7.9l-1.6-11l-1.6-9.4l-4.7-7.9l6.3-48.7l9.4-25.1v-17.3l1.6-7.9l-9.4-6.3l11-22
			l7.8-22l6.3-11v-3.1l-7.8-7.9l-4.7-6.3v-12.6l4.7-9.4l7.8-3.1h3.1l4.7,6.3l1.6,7.9h3.1l6.3-1.6l12.5-7.9l9.4-7.9h1.6l37.6-150.8
			l64.3-279.6l15.7-12.6l-32.9-25.1l15.7-17.3l-6.3-18.8v-18.9l7.8-14.1l-4.7-1.6l-4.7-14.1v-28.3l-17.2,7.9l-3.1,11l-11,3.1h-4.7
			L876,1047.6l-9.4,14.1l-28.2,9.4l-17.2,12.6l-1.6,18.9l-4.7,12.6l-14.1,7.9l-9.4,15.7l-1.6,20.4l-20.4,17.3l-15.7,12.6l-15.7,11
			l-7.8,6.3L14.1,1090L0,1134"/>
		<path class="st0" d="M0,1134l28.2,26.7l53.3,51.8l32.9,34.6l11,14.1l3.1,37.7l-7.8,69.1l-12.5,28.3l-7.8,25.1v14.1l25.1,17.3
			l54.8,23.6l64.2,12.6l62.7,4.7l17.2-3.1l12.5-11h15.7l58,20.4l26.6,9.4l15.7-9.4l11,4.7l-1.6,9.4l17.2,25.1l11,22l9.4,1.6
			l15.7-4.7l11,7.9l11,18.8l-4.7,70.7l-11,22l-6.3,6.3l-14.1,9.4l21.9,12.6h11v15.7l-11,6.3l-3.1,3.1l-3.1,4.7l-11-3.1h-4.7
			l-3.1,18.8l21.9,29.8l7.8,26.7l20.4,23.6l15.7,22l7.8,25.1l26.6,28.3l37.6,31.4l43.9,15.7l58,18.8l34.5,4.7l20.4,9.4l26.6,12.6
			l39.2,7.9l7.8-23.6l-4.7-1.6H854l-3.1-9.4v-17.3l4.7-28.3l7.8-22v-6.3l3.1,1.6l4.7,6.3l3.1,3.1l3.1-3.1v-9.4l6.3-22l6.3-7.9v-6.3
			l-3.1-4.7l-9.4-6.3H876v-7.9l1.6-12.6l6.3-9.4l3.1-7.9l-1.6-11l-1.6-9.4l-4.7-7.9l6.3-48.7l9.4-25.1v-17.3l1.6-7.9l-9.4-6.3l11-22
			l7.8-22l6.3-11v-3.1l-7.8-7.9l-4.7-6.3v-12.6l4.7-9.4l7.8-3.1h3.1l4.7,6.3l1.6,7.9h3.1l6.3-1.6l12.5-7.9l9.4-7.9h1.6l37.6-150.8
			l64.3-279.6l15.7-12.6l-32.9-25.1l15.7-17.3l-6.3-18.8v-18.9l7.8-14.1l-4.7-1.6l-4.7-14.1v-28.3l-17.2,7.9l-3.1,11l-11,3.1h-4.7
			L876,1047.6l-9.4,14.1l-28.2,9.4l-17.2,12.6l-1.6,18.9l-4.7,12.6l-14.1,7.9l-9.4,15.7l-1.6,20.4l-20.4,17.3l-15.7,12.6l-15.7,11
			l-7.8,6.3L14.1,1090L0,1134"/>
		<path class="st0" d="M1062.4,1024l3.1,14.1l9.4,9.4l9.4,4.7l14.1,7.9l14.1,11l12.5,12.6l9.4,14.1l9.4,7.9h18.8l17.2,14.1l20.4,11
			h32.9l17.2,4.7l20.4,11l34.5,25.1l28.2,23.6l11-4.7l-25.1-34.6l-32.9-15.7l7.8-7.9l34.5,14.1l25.1,22l34.5,7.9l-32.9-25.1
			l-40.7-33l-53.3-36.1l-20.4-15.7l-58-29.8l-29.8-18.8l-6.3-4.7h-7.8l4.7,11l9.4,12.6h-18.8L1122,1024l-3.1-6.3l-11-12.6l-9.4-3.1
			l-23.5,3.1l-4.7,11h-4.7L1062.4,1024"/>
		<path class="st0" d="M1062.4,1024l3.1,14.1l9.4,9.4l9.4,4.7l14.1,7.9l14.1,11l12.5,12.6l9.4,14.1l9.4,7.9h18.8l17.2,14.1l20.4,11
			h32.9l17.2,4.7l20.4,11l34.5,25.1l28.2,23.6l11-4.7l-25.1-34.6l-32.9-15.7l7.8-7.9l34.5,14.1l25.1,22l34.5,7.9l-32.9-25.1
			l-40.7-33l-53.3-36.1l-20.4-15.7l-58-29.8l-29.8-18.8l-6.3-4.7h-7.8l4.7,11l9.4,12.6h-18.8L1122,1024l-3.1-6.3l-11-12.6l-9.4-3.1
			l-23.5,3.1l-4.7,11h-4.7L1062.4,1024"/>
	</g>
	<g>
		<path class="st0" d="M521.2,1419.3v1.4h14.4v-1.4c-2.3,0-3.9-0.5-4.8-1.6c-0.9-1.1-1.3-3.1-1.3-5.9v-39.1h-1.5l-34,41.8v-33.7
			c0-2.4,0.5-4.1,1.5-5.1c1-1,2.6-1.5,4.8-1.5v-1.4h-14.5v1.4c2.3,0,3.9,0.6,4.7,1.8c0.8,1.2,1.2,3.3,1.2,6.4v28.1
			c0,3-0.6,5.2-1.6,6.5c-1.1,1.3-2.9,2.1-5.4,2.4v1.4h12.3l30.3-37.4v28.1c0,2.9-0.4,5-1.3,6.2
			C525,1418.8,523.5,1419.3,521.2,1419.3"/>
		<path class="st0" d="M572.3,1402.7h1.4v-11.8h-1.4c-0.5,2.1-1.2,3.4-1.9,3.9c-0.7,0.5-2.4,0.8-4.9,0.8h-12v-17.3
			c0-1.2,0.3-2.1,0.8-2.6c0.5-0.5,1.4-0.7,2.7-0.7h8.4c3,0,5.1,0.2,6.3,0.5c1.2,0.3,2.1,0.9,2.9,1.8c0.8,0.9,1.7,2.3,2.6,4.4h1.4
			l-2.2-9h-34.7v1.4c2.2,0,3.6,0.6,4.4,1.7c0.7,1.1,1.1,3.1,1.1,5.9v30c0,2.9-0.4,4.9-1.2,6c-0.8,1.1-2.2,1.6-4.3,1.6v1.4h34.7v-8
			h-0.9c-0.5,2.3-1.2,3.8-2.1,4.5c-0.9,0.7-2.9,1.1-6,1.1h-13.9V1398h13.5c1.8,0,3.1,0.3,3.8,1
			C571.5,1399.6,572,1400.9,572.3,1402.7"/>
		<path class="st0" d="M656.7,1420.8v-1.4c-1.9-0.1-3.5-0.9-4.7-2.4c-1.3-1.4-2.5-3.9-3.8-7.4l-13.5-37.6h-1.5l-13.2,35.3
			l-12.7-35.3H606l-14.7,39.6c-0.8,2.2-1.5,3.8-2.2,4.9c-0.6,1.1-1.3,1.8-2.1,2.2c-0.7,0.4-2,0.6-3.9,0.6v1.4H601v-1.4
			c-2.8-0.3-4.2-1.4-4.2-3.1c0-0.7,0.2-1.6,0.6-2.7l11.3-30.5l10.1,27.9l-1.1,3.1c-0.7,1.9-1.5,3.3-2.5,4.1c-1,0.8-2.4,1.2-4.2,1.2
			v1.4h17.6v-1.4c-3.1,0-4.7-1-4.7-2.9c0-0.8,0.2-1.8,0.7-3l11.3-30.4l9.8,26.9c0.8,2.1,1.2,3.9,1.2,5.3c0,2.8-1.6,4.1-4.8,4.1v1.4
			H656.7z"/>
		<path class="st0" d="M719.3,1413.9l-10.8-17v-15.1c0-2.9,0.4-4.9,1.2-6c0.8-1.1,2.2-1.6,4.3-1.6v-1.4h-17.7v1.4
			c2.4,0,3.9,0.6,4.7,1.7c0.8,1.1,1.2,3.1,1.2,5.9v15.1l-10.2,15.9c-1.7,2.6-3.1,4.4-4.1,5.2s-2.5,1.3-4.4,1.4v1.4h18.7v-1.4
			c-3.3,0-4.9-0.8-4.9-2.3c0-0.7,0.3-1.5,1-2.5l9.4-14.6l7.7,12.1c1.1,1.8,1.7,3.3,1.7,4.6c0,1.8-1,2.7-3.1,2.7v1.4H727v-1.4
			c-1.8-0.1-3.1-0.5-4.1-1.2C721.9,1417.5,720.7,1416.1,719.3,1413.9"/>
		<path class="st0" d="M729.1,1397c0,7.1,2.5,13,7.4,17.8c4.9,4.7,11,7.1,18.4,7.1c7.1,0,13.2-2.4,18.1-7.2
			c4.9-4.8,7.4-10.7,7.4-17.7c0-7.1-2.5-13.1-7.5-18c-5-4.9-11-7.3-18.2-7.3c-7.2,0-13.2,2.4-18.1,7.3
			C731.5,1383.9,729.1,1389.9,729.1,1397z M736.4,1396.9c0-7,1.7-12.6,5-16.9c3.3-4.3,7.7-6.5,13.1-6.5c5.5,0,9.9,2.2,13.3,6.6
			c3.4,4.4,5.1,9.9,5.1,16.5c0,7.1-1.7,12.7-5,17c-3.3,4.3-7.7,6.4-13,6.4c-5.6,0-10.1-2.1-13.5-6.3
			C738.1,1409.5,736.4,1403.9,736.4,1396.9"/>
		<path class="st0" d="M803.9,1395H800v-13.2c0-2.8,0.4-4.8,1.2-5.9s2.2-1.7,4.3-1.7v-1.4h-17.3v1.4c2.1,0,3.6,0.6,4.4,1.7
			c0.8,1.1,1.1,3.1,1.1,5.9v30.1c0,2.8-0.4,4.8-1.1,5.9c-0.7,1.1-2.2,1.6-4.4,1.6v1.4H808c4.9,0,8.8-1.2,11.7-3.5
			c2.9-2.4,4.4-5.4,4.4-9c0-5.9-3.3-9.9-9.9-11.8c1.4-0.9,2.7-2.2,4.1-3.8c1.3-1.6,3.1-4.3,5.4-8.1c2.5-4.2,4.5-6.9,5.9-8.2
			c1.4-1.3,2.9-2,4.4-2.1v-1.4H824c-2,2.5-4.5,6-7.3,10.7c-3.1,4.9-5.4,8.1-7.2,9.5C807.8,1394.3,805.9,1395,803.9,1395L803.9,1395z
			 M805.1,1418.9H800v-22h5.9c3.5,0,6.3,1,8.3,3c2,2,3,4.7,3,8c0,3.3-1.1,5.9-3.4,7.9C811.7,1417.9,808.8,1418.9,805.1,1418.9"/>
		<path class="st0" d="M838.3,1372.7v1.4c2.1,0,3.6,0.6,4.3,1.7c0.8,1.1,1.2,3.1,1.2,5.9v29.9c0,2.9-0.4,4.9-1.1,6
			c-0.8,1.1-2.2,1.7-4.4,1.7v1.4h17.4v-1.4c-2.1,0-3.5-0.6-4.3-1.7c-0.8-1.1-1.2-3.1-1.2-5.9v-14.5l15.7,15.5c1.7,1.7,2.5,3,2.5,4
			c0,1.4-1,2.3-3,2.7v1.4h18.1v-1.4h-2.4c-1.4,0-3.1-0.5-5-1.4c-1.9-1-3.6-2.2-5.1-3.8l-15-14.8l19.9-20.1c2-2,3.5-3.3,4.5-3.9
			c1.1-0.6,2.6-1,4.5-1.1v-1.4h-11.5l-23.2,23.6v-14.5c0-2.8,0.4-4.8,1.2-5.9c0.8-1.1,2.2-1.7,4.3-1.7v-1.4H838.3z"/>
	</g>
</g>
<g>
	<path class="st1" d="M178.3,200.6l1.5-89.5h21.2l9.9,52.4l10.7-52.4H242l1.5,89.5h-14.1l-1.5-59.4l-10.5,59.4H205l-11-59.8
		l-1.3,59.8H178.3z"/>
	<path class="st1" d="M252.1,200.6l16.9-89.5h22.3l16.8,89.5H290l-3.1-19h-13.1l-3,19H252.1z M275.6,169.7h9.6l-4.8-34.7
		L275.6,169.7z"/>
	<path class="st1" d="M317.2,200.6v-89.5H337v36.4l15.1-36.4h19.3l-16.6,40.4l17.4,49.1H352l-13.1-40l-1.9,3.1v36.9H317.2z"/>
	<path class="st1" d="M379.8,200.6v-89.5H420v13.5h-20.5v22.1h15.6v13.8h-15.6v26.7h20.7v13.4H379.8z"/>
	<path class="st1" d="M457.6,200.6v-89.5h13.9l18.4,43v-43h16.4v89.5H493l-18.5-46.3v46.3H457.6z"/>
	<path class="st1" d="M530.8,200.6V164l-17.1-52.9h18.6l8.5,28.3l7.7-28.3h18L549.7,164v36.6H530.8z"/>
	<path class="st0" d="M602.1,200.7V111H618v89.7H602.1z M620.5,147h2.6c1.8,0,3.2-0.4,4.4-1.1s2-1.7,2.7-2.9
		c0.7-1.2,1.1-2.6,1.4-4.2c0.3-1.6,0.4-3.3,0.4-5.1c0-2.6-0.2-4.7-0.7-6.3c-0.5-1.6-1.2-2.8-2.1-3.6c-0.9-0.8-2.1-1.4-3.4-1.7
		c-1.3-0.3-2.9-0.4-4.6-0.4h-0.5V111h0.2c3.9,0,7.4,0.4,10.6,1.1c3.2,0.8,5.9,2,8.2,3.8c2.3,1.8,4,4.1,5.3,7.1c1.3,3,1.9,6.6,1.9,11
		c0,4.6-1.1,8.3-3.2,11.1c-2.1,2.9-5.3,5-9.6,6.5c2.8,0.7,5.1,1.8,7,3.3c1.9,1.5,3.5,3.2,4.7,5.1c1.2,2,2,4.1,2.6,6.5
		c0.5,2.4,0.8,4.9,0.8,7.5c0,4.3-0.5,8.1-1.4,11.4c-1,3.3-2.4,6.1-4.5,8.3c-2,2.2-4.6,3.9-7.8,5.1c-3.2,1.1-6.9,1.7-11.3,1.7h-3.4
		v-11.4h1.9c2.4,0,4.3-0.3,5.7-1c1.4-0.7,2.6-1.7,3.3-3.1c0.8-1.4,1.3-3,1.6-5.1c0.3-2,0.4-4.3,0.4-6.9c0-2.2-0.2-4.3-0.5-6.2
		c-0.3-1.9-0.9-3.6-1.7-5c-0.8-1.4-1.9-2.5-3.4-3.3c-1.4-0.8-3.2-1.2-5.4-1.2h-2V147z"/>
	<path class="st0" d="M658.2,200.7V111h15.9v89.7H658.2z M676.6,189.6h16.9v11.1h-16.9V189.6z"/>
	<path class="st0" d="M724.2,202.3c-3.5-0.1-6.5-0.6-9-1.4s-4.7-2-6.5-3.5c-1.8-1.5-3.3-3.2-4.4-5.2c-1.1-2-2-4.2-2.7-6.6
		c-0.7-2.4-1.1-4.9-1.3-7.6s-0.4-5.4-0.4-8.2V111h16v58.7c0,3.3,0.1,6.2,0.3,8.6c0.2,2.4,0.6,4.5,1.2,6.2c0.6,1.7,1.4,2.9,2.5,3.8
		c1.1,0.9,2.6,1.4,4.4,1.6V202.3z M726.7,190c1.9-0.1,3.5-0.6,4.6-1.5c1.1-0.9,1.9-2.1,2.4-3.8s0.9-3.7,1-6.2
		c0.1-2.5,0.2-5.4,0.2-8.8V111h15.9v58.8c0,2.8-0.1,5.6-0.3,8.3c-0.2,2.7-0.6,5.2-1.3,7.6c-0.6,2.4-1.5,4.6-2.6,6.6
		c-1.1,2-2.6,3.7-4.3,5.2c-1.8,1.5-3.9,2.6-6.5,3.5s-5.6,1.3-9,1.4V190z"/>
	<path class="st0" d="M761.9,200.7V111h15.9v89.7H761.9z M780.3,111H798v11.1h-17.7V111z M780.3,148.6h11.8v11.3h-11.8V148.6z
		 M780.3,189.6H798v11.1h-17.7V189.6z"/>
</g>
</svg>
